<svg id="Camada_2" data-name="Camada 2" xmlns="http://www.w3.org/2000/svg" viewBox="0 0 415.64 174.74"><defs><style>.cls-1{fill:#fff;}</style></defs><title>logo-arqtecservice-monob</title><path class="cls-1" d="M87.56,89.39a13,13,0,0,1,.84-1.67,4.78,4.78,0,0,1,1.2-1.34,5.42,5.42,0,0,1,1.84-.87,10,10,0,0,1,2.72-.32h1.1a10,10,0,0,1,2.73.32,5.51,5.51,0,0,1,1.84.87,4.78,4.78,0,0,1,1.2,1.34,14.43,14.43,0,0,1,.83,1.67l5.13,12.3h-4.6l-1.3-3.15H88.36L87,101.69h-4.6Zm2.35,5.4h9.6l-1.87-4.5a1.73,1.73,0,0,0-.71-.86,3.17,3.17,0,0,0-1.44-.24H93.94a3.17,3.17,0,0,0-1.44.24,1.73,1.73,0,0,0-.71.86Z" transform="translate(-9.57 -2.56)"/><path class="cls-1" d="M121,97.44V93.69H127a6.08,6.08,0,0,0,.95-.07,2.44,2.44,0,0,0,.86-.3,1.76,1.76,0,0,0,.64-.68,2.43,2.43,0,0,0,.25-1.2V89.19h-9.3a6.09,6.09,0,0,0-1,.08,2.37,2.37,0,0,0-.86.3,1.73,1.73,0,0,0-.64.67,2.43,2.43,0,0,0-.25,1.2v10.25h-4.25V91.44a6.64,6.64,0,0,1,.45-2.51,5.12,5.12,0,0,1,1.3-1.89,5.84,5.84,0,0,1,2.05-1.18,8.14,8.14,0,0,1,2.7-.42h14v6a6,6,0,0,1-1.08,3.67,5.46,5.46,0,0,1-3,2l4.6,4.57h-5.68l-4.17-4.25Z" transform="translate(-9.57 -2.56)"/><path class="cls-1" d="M155.49,101.69h-1.63v3h-4.25v-3h-8.12V91.44a6.64,6.64,0,0,1,.45-2.51,5.12,5.12,0,0,1,1.3-1.89,5.84,5.84,0,0,1,2-1.18,8.14,8.14,0,0,1,2.7-.42h14V95.69a6.7,6.7,0,0,1-.45,2.52,5,5,0,0,1-1.3,1.88,5.71,5.71,0,0,1-2.05,1.19A8.14,8.14,0,0,1,155.49,101.69ZM155,97.94a6.08,6.08,0,0,0,1-.07,2.44,2.44,0,0,0,.86-.3,1.76,1.76,0,0,0,.64-.68,2.55,2.55,0,0,0,.25-1.2v-6.5h-9.3a6.09,6.09,0,0,0-.95.08,2.44,2.44,0,0,0-.86.3,1.73,1.73,0,0,0-.64.67,2.43,2.43,0,0,0-.25,1.2v6.5Z" transform="translate(-9.57 -2.56)"/><path class="cls-1" d="M177.24,89.19h-8.75V85.44h21.75v3.75h-8.75v12.5h-4.25Z" transform="translate(-9.57 -2.56)"/><path class="cls-1" d="M217.24,89.19H203.69a6.09,6.09,0,0,0-.95.08,2.44,2.44,0,0,0-.86.3,1.73,1.73,0,0,0-.64.67,2.43,2.43,0,0,0-.25,1.2v.5h16.25v3.25H201v2.75h16.25v3.75h-20.5V91.44a6.64,6.64,0,0,1,.45-2.51,5.12,5.12,0,0,1,1.3-1.89,5.84,5.84,0,0,1,2-1.18,8.14,8.14,0,0,1,2.7-.42h14Z" transform="translate(-9.57 -2.56)"/><path class="cls-1" d="M245,97.94v3.75h-20.5V91.44a6.64,6.64,0,0,1,.45-2.51,5.12,5.12,0,0,1,1.3-1.89,5.84,5.84,0,0,1,2-1.18,8.14,8.14,0,0,1,2.7-.42h14v3.75H231.44a6.09,6.09,0,0,0-.95.08,2.37,2.37,0,0,0-.86.3,1.73,1.73,0,0,0-.64.67,2.43,2.43,0,0,0-.25,1.2v6.5Z" transform="translate(-9.57 -2.56)"/><path class="cls-1" d="M268.24,95.32H252V91.44a6.64,6.64,0,0,1,.45-2.51,5.12,5.12,0,0,1,1.3-1.89,5.84,5.84,0,0,1,2-1.18,8.14,8.14,0,0,1,2.7-.42h14v3.75H258.94a6.09,6.09,0,0,0-.95.08,2.37,2.37,0,0,0-.86.3,1.73,1.73,0,0,0-.64.67,2.43,2.43,0,0,0-.25,1.2v.38h16.25v3.87a6.7,6.7,0,0,1-.45,2.52,5,5,0,0,1-1.3,1.88,5.71,5.71,0,0,1-2.05,1.19,8.14,8.14,0,0,1-2.7.41H252V97.94h13.55a6.08,6.08,0,0,0,.95-.07,2.44,2.44,0,0,0,.86-.3,1.76,1.76,0,0,0,.64-.68,2.43,2.43,0,0,0,.25-1.2Z" transform="translate(-9.57 -2.56)"/><path class="cls-1" d="M300.49,89.19H286.94a6.09,6.09,0,0,0-.95.08,2.37,2.37,0,0,0-.86.3,1.73,1.73,0,0,0-.64.67,2.43,2.43,0,0,0-.25,1.2v.5h16.25v3.25H284.24v2.75h16.25v3.75H280V91.44a6.64,6.64,0,0,1,.45-2.51,5.12,5.12,0,0,1,1.3-1.89,5.84,5.84,0,0,1,2.05-1.18,8.14,8.14,0,0,1,2.7-.42h14Z" transform="translate(-9.57 -2.56)"/><path class="cls-1" d="M315.24,97.44V93.69h6.05a6.08,6.08,0,0,0,.95-.07,2.44,2.44,0,0,0,.86-.3,1.76,1.76,0,0,0,.64-.68,2.43,2.43,0,0,0,.25-1.2V89.19h-9.3a6.09,6.09,0,0,0-.95.08,2.37,2.37,0,0,0-.86.3,1.73,1.73,0,0,0-.64.67,2.43,2.43,0,0,0-.25,1.2v10.25h-4.25V91.44a6.64,6.64,0,0,1,.45-2.51,5.12,5.12,0,0,1,1.3-1.89,5.84,5.84,0,0,1,2.05-1.18,8.14,8.14,0,0,1,2.7-.42h14v6a6,6,0,0,1-1.08,3.67,5.46,5.46,0,0,1-3,2l4.6,4.57h-5.68l-4.17-4.25Z" transform="translate(-9.57 -2.56)"/><path class="cls-1" d="M346.36,101.69a4.81,4.81,0,0,1-2.66-.75,5,5,0,0,1-1.76-1.9l-7.2-13.6h4.8L345.69,97a1.42,1.42,0,0,0,.45.51,1.33,1.33,0,0,0,.72.16,1.34,1.34,0,0,0,.73-.16A1.42,1.42,0,0,0,348,97l6.12-11.58H359L351.79,99a5,5,0,0,1-1.76,1.9,4.84,4.84,0,0,1-2.67.75Z" transform="translate(-9.57 -2.56)"/><path class="cls-1" d="M369.71,85.44v16.25h-4.25V85.44Z" transform="translate(-9.57 -2.56)"/><path class="cls-1" d="M397.71,97.94v3.75h-20.5V91.44a6.64,6.64,0,0,1,.45-2.51A5.24,5.24,0,0,1,379,87,5.84,5.84,0,0,1,381,85.86a8.14,8.14,0,0,1,2.7-.42h14v3.75H384.16a6.19,6.19,0,0,0-1,.08,2.51,2.51,0,0,0-.86.3,1.73,1.73,0,0,0-.64.67,2.55,2.55,0,0,0-.25,1.2v6.5Z" transform="translate(-9.57 -2.56)"/><path class="cls-1" d="M425.21,89.19H411.66a6.19,6.19,0,0,0-1,.08,2.51,2.51,0,0,0-.86.3,1.73,1.73,0,0,0-.64.67,2.55,2.55,0,0,0-.25,1.2v.5h16.25v3.25H409v2.75h16.25v3.75h-20.5V91.44a6.64,6.64,0,0,1,.45-2.51,5.24,5.24,0,0,1,1.3-1.89,5.84,5.84,0,0,1,2.05-1.18,8.14,8.14,0,0,1,2.7-.42h14Z" transform="translate(-9.57 -2.56)"/><text x="-9.57" y="-2.56"/><path class="cls-1" d="M121.69,110.52a2.58,2.58,0,0,1,.71-.26,1.37,1.37,0,0,1,.91,2.52l-111.18,64a3.2,3.2,0,0,1-1.57.53c-.89-.21-1.71-1.19.07-3.07,2.46-2.58,57.08-68.2,61.16-73.11a.18.18,0,0,0-.14-.29l-35.12-.25a1.75,1.75,0,0,1-1.14-3.07h0C37,96.15,141.46,9.82,149.76,3a1.68,1.68,0,0,1,1.46-.34c.8.19,1.68.81.73,2.72C150.51,8.2,121.27,63.1,117.5,70.2a1.74,1.74,0,0,1-2,.87,3.43,3.43,0,0,1-.69-.31c-1.3-.79.17-3.41.17-3.41l27.19-47.81a.18.18,0,1,0-.3-.19l-33.33,51.2a1.21,1.21,0,0,1-.87.44,1.19,1.19,0,0,1-1.3-1.57,31.06,31.06,0,0,1,2.76-5l35.1-52.71a.18.18,0,0,0-.27-.24L41.09,96.72a.18.18,0,0,0,.12.32l34.91.5s1.7.94.85,2.3S28.91,156.7,20.66,166.4a.26.26,0,0,0,.34.39l87.38-58.73a9.25,9.25,0,0,1,1.12-.6,2.07,2.07,0,0,1,1.82,0,1.45,1.45,0,0,1,.35,1.7c-.76,1.26-75.22,50.39-83.41,55.79,0,0,0,.05,0,0Z" transform="translate(-9.57 -2.56)"/></svg>